<?xml version="1.0" standalone="no"?>
<!DOCTYPE svg PUBLIC "-//W3C//DTD SVG 20010904//EN"
 "http://www.w3.org/TR/2001/REC-SVG-20010904/DTD/svg10.dtd">
<svg version="1.0" xmlns="http://www.w3.org/2000/svg"
 width="1080.000000pt" height="1920.000000pt" viewBox="0 0 1080.000000 1920.000000"
 preserveAspectRatio="xMidYMid meet">

<g transform="translate(0.000000,1920.000000) scale(0.100000,-0.100000)"
fill="#000000" stroke="none">
<path d="M10262 15785 c-21 -9 -38 -27 -48 -50 -20 -49 1 -100 51 -120 31 -14
39 -14 70 0 78 32 78 138 1 170 -41 18 -33 18 -74 0z"/>
<path d="M1062 15585 c-21 -9 -38 -27 -48 -50 -20 -49 1 -100 51 -120 31 -14
39 -14 70 0 78 32 78 138 1 170 -41 18 -33 18 -74 0z"/>
<path d="M2062 15585 c-21 -9 -38 -27 -48 -50 -20 -49 1 -100 51 -120 31 -14
39 -14 70 0 78 32 78 138 1 170 -41 18 -33 18 -74 0z"/>
<path d="M2662 15385 c-21 -9 -38 -27 -48 -50 -20 -49 1 -100 51 -120 31 -14
39 -14 70 0 78 32 78 138 1 170 -41 18 -33 18 -74 0z"/>
<path d="M1662 15185 c-21 -9 -38 -27 -48 -50 -20 -49 1 -100 51 -120 31 -14
39 -14 70 0 78 32 78 138 1 170 -41 18 -33 18 -74 0z"/>
<path d="M9262 15185 c-21 -9 -38 -27 -48 -50 -20 -49 1 -100 51 -120 31 -14
39 -14 70 0 78 32 78 138 1 170 -41 18 -33 18 -74 0z"/>
<path d="M8462 15135 c-21 -9 -38 -27 -48 -50 -20 -49 1 -100 51 -120 31 -14
39 -14 70 0 78 32 78 138 1 170 -41 18 -33 18 -74 0z"/>
<path d="M662 14985 c-21 -9 -38 -27 -48 -50 -20 -49 1 -100 51 -120 31 -14
39 -14 70 0 78 32 78 138 1 170 -41 18 -33 18 -74 0z"/>
<path d="M2262 14985 c-21 -9 -38 -27 -48 -50 -20 -49 1 -100 51 -120 31 -14
39 -14 70 0 78 32 78 138 1 170 -41 18 -33 18 -74 0z"/>
<path d="M3062 14985 c-21 -9 -38 -27 -48 -50 -20 -49 1 -100 51 -120 31 -14
39 -14 70 0 78 32 78 138 1 170 -41 18 -33 18 -74 0z"/>
<path d="M1462 14785 c-21 -9 -38 -27 -48 -50 -20 -49 1 -100 51 -120 31 -14
39 -14 70 0 78 32 78 138 1 170 -41 18 -33 18 -74 0z"/>
<path d="M8862 14785 c-21 -9 -38 -27 -48 -50 -20 -49 1 -100 51 -120 31 -14
39 -14 70 0 78 32 78 138 1 170 -41 18 -33 18 -74 0z"/>
<path d="M10262 14785 c-21 -9 -38 -27 -48 -50 -20 -49 1 -100 51 -120 31 -14
39 -14 70 0 78 32 78 138 1 170 -41 18 -33 18 -74 0z"/>
<path d="M7462 14625 c-21 -9 -38 -27 -48 -50 -20 -49 1 -100 51 -120 31 -14
39 -14 70 0 78 32 78 138 1 170 -41 18 -33 18 -74 0z"/>
<path d="M862 14385 c-21 -9 -38 -27 -48 -50 -20 -49 1 -100 51 -120 31 -14
39 -14 70 0 78 32 78 138 1 170 -41 18 -33 18 -74 0z"/>
<path d="M1862 14185 c-21 -9 -38 -27 -48 -50 -20 -49 1 -100 51 -120 31 -14
39 -14 70 0 78 32 78 138 1 170 -41 18 -33 18 -74 0z"/>
<path d="M2462 14185 c-21 -9 -38 -27 -48 -50 -20 -49 1 -100 51 -120 31 -14
39 -14 70 0 78 32 78 138 1 170 -41 18 -33 18 -74 0z"/>
<path d="M8662 13985 c-21 -9 -38 -27 -48 -50 -20 -49 1 -100 51 -120 31 -14
39 -14 70 0 78 32 78 138 1 170 -41 18 -33 18 -74 0z"/>
<path d="M2262 13385 c-21 -9 -38 -27 -48 -50 -20 -49 1 -100 51 -120 31 -14
39 -14 70 0 78 32 78 138 1 170 -41 18 -33 18 -74 0z"/>
</g>
</svg>
